<svg t="1751184077073" class="icon" viewBox="0 0 1024 1024" version="1.1" xmlns="http://www.w3.org/2000/svg" p-id="2107" width="200" height="200"><path d="M412.768 815.52c11.744 11.328 13.088 29.536 3.712 42.4l-2.56 3.104-83.904 88.992a31.808 31.808 0 0 1-45.12 1.152 32.448 32.448 0 0 1-3.68-42.368l2.56-3.104 83.904-88.992a31.712 31.712 0 0 1 45.088-1.184zM307.2 714.4c11.776 11.296 13.12 29.504 3.744 42.4l-2.56 3.072-4.96 5.28-132.128 140.256a31.52 31.52 0 0 1-23.136 10.016 31.488 31.488 0 0 1-21.92-8.864 31.232 31.232 0 0 1-7.648-12.16c-3.648-9.952-2.56-21.28 3.84-30.08l2.656-3.2 137.056-145.536a31.648 31.648 0 0 1 45.056-1.184zM840.576 65.216c26.464-2.144 49.92-1.568 73.504 2.496 26.88 5.184 37.952 15.968 41.856 41.664l1.376 9.216 1.6 12.928c0.96 9.408 1.344 17.888 0.96 25.728-1.92 64.928-15.296 129.44-39.392 194.816l-2.24 6.56-1.92 5.44c-31.808 81.92-78.656 151.904-141.952 209.792l2.176-2.08 3.648-3.424 5.792 62.784c3.52 55.616-18.656 102.624-64.48 135.104l-16.64 11.648-11.232 7.744-17.92 12.096-27.584 18.24-58.112 37.76a72.128 72.128 0 0 1-95.648-19.776 70.464 70.464 0 0 1-13.12-36.48l-1.6-17.056-2.784-32.608-2.4-30.912-1.568-21.984-9.888-2.112a198.624 198.624 0 0 1-27.136-8.8l-9.056-3.84a173.312 173.312 0 0 1-77.856-67.936 189.76 189.76 0 0 1-23.808-62.656l-17.92-0.992-33.184-2.08c-10.752-0.704-21.248-1.44-31.552-2.208l-15.264-1.184c-56-4.16-85.088-64.064-55.616-111.68l7.04-11.424 70.176-109.216c30.112-46.976 75.488-72.704 131.264-73.536 12.8 0 25.792 0.928 42.08 2.688l29.824 3.552 3.488-3.712c55.552-58.144 123.808-101.76 204.832-132.96l15.36-5.696a641.664 641.664 0 0 1 153.376-34.848z m46.88 63.52a272.32 272.32 0 0 0-51.84 1.216l-17.664 2.048a579.04 579.04 0 0 0-120.64 29.344c-83.488 29.952-151.264 73.152-203.904 131.616l-3.264 3.52c-10.016 9.792-21.664 12.64-36.224 11.616l-33.28-3.904-13.568-1.472a277.824 277.824 0 0 0-26.496-1.472c-33.664 0.512-59.232 15.008-77.792 43.968l-39.872 62.336-26.336 40.64-10.368 16.64c-4.704 7.616-1.632 13.92 5.92 14.464 4.96 0.416 9.984 0.8 15.04 1.152l31.104 2.208 32.672 2.016 34.656 1.92c22.24 1.056 38.592 14.464 40.8 38.624 1.6 19.136 7.552 37.6 17.152 53.568a109.024 109.024 0 0 0 49.504 42.976c12.928 5.824 24.768 9.472 36.928 11.104l3.52 0.48 7.36 1.216c23.872 5.088 33.728 19.584 35.2 45.28l1.184 17.824 2.208 29.76 2.56 31.456 3.008 33.888a7.52 7.52 0 0 0 1.408 3.936c2.528 3.52 7.552 4.384 12.48 0.96l29.376-19.072 45.28-29.696 23.808-16 27.104-18.88c28.96-20.48 41.024-47.84 37.152-84.384l-6.048-64.064c-0.96-15.232 5.248-30.08 16.32-39.584l10.816-10.24c49.76-48.48 87.488-106.784 113.952-174.944l9.472-26.976c18.176-53.536 28.192-106.048 29.76-159.104 0.256-4.864 0-10.176-0.64-16.576l-1.088-8.704zM201.696 613.312c11.744 11.328 13.12 29.536 3.712 42.4l-2.56 3.104-83.84 88.96a31.68 31.68 0 0 1-45.12 1.184 32.448 32.448 0 0 1-3.712-42.368l2.56-3.104 83.84-89.024a31.68 31.68 0 0 1 45.12-1.152zM736 224a64 64 0 1 1 0 128 64 64 0 0 1 0-128z" fill="#333333" p-id="2108"></path></svg>